<svg xmlns="http://www.w3.org/2000/svg" viewBox="0 0 34.27 39.56"><defs><style>.cls-1,.cls-2{fill:none;stroke:#1d343b;}.cls-1{stroke-miterlimit:10;}.cls-2{stroke-linecap:round;stroke-linejoin:round;}</style></defs><title>Asset 10</title><g id="Layer_2" data-name="Layer 2"><g id="Layer_1-2" data-name="Layer 1"><path class="cls-1" d="M10.6,29.51H2.27A1.77,1.77,0,0,1,.5,27.74V2.87"/><line class="cls-1" x1="23.71" y1="5.11" x2="23.71" y2="16.29"/><path class="cls-1" d="M24.59,5.47H3A2.48,2.48,0,0,1,.5,3h0A2.48,2.48,0,0,1,3,.5H24.59"/><line class="cls-1" x1="4.74" y1="29.51" x2="4.74" y2="5.47"/><line class="cls-2" x1="26.86" y1="32.14" x2="33.77" y2="39.06"/><circle class="cls-1" cx="21.5" cy="26.95" r="7.28" transform="translate(-7.76 8.71) rotate(-19.49)"/><path class="cls-1" d="M17.08,27.59a5.11,5.11,0,0,1,5-5.33"/><rect class="cls-1" x="9" y="10.42" width="9.88" height="3.79"/></g></g></svg>