<svg xmlns="http://www.w3.org/2000/svg" viewBox="0 0 27 39.04"><defs><style>.cls-1{fill:none;stroke:#1d343b;stroke-miterlimit:10;}</style></defs><title>Asset 6</title><g id="Layer_2" data-name="Layer 2"><g id="Layer_1-2" data-name="Layer 1"><polygon class="cls-1" points="26.5 33.18 26.5 37.78 20.97 31.93 15.45 37.78 15.45 19.59 26.5 19.59 26.5 28.73 26.5 33.18"/><line class="cls-1" x1="18.18" y1="22.67" x2="23.85" y2="22.67"/><line class="cls-1" x1="4.07" y1="4.84" x2="11.4" y2="4.84"/><line class="cls-1" x1="4.07" y1="8.1" x2="14.7" y2="8.1"/><line class="cls-1" x1="4.07" y1="11.35" x2="16.07" y2="11.35"/><line class="cls-1" x1="4.07" y1="14.6" x2="12.23" y2="14.6"/><line class="cls-1" x1="4.07" y1="17.85" x2="8.93" y2="17.85"/><line class="cls-1" x1="24.32" y1="15.5" x2="24.32" y2="5.53"/><polyline class="cls-1" points="18.26 0.55 0.5 0.55 0.5 29.72 10.71 29.72"/><polyline class="cls-1" points="24.32 6.14 17.6 6.14 17.6 4.39 17.61 0.55"/><line class="cls-1" x1="17.67" y1="0.38" x2="24.59" y2="6.12"/></g></g></svg>