<svg xmlns="http://www.w3.org/2000/svg" viewBox="0 0 35 39.69"><defs><style>.cls-1,.cls-2{fill:none;stroke:#1d343b;}.cls-1{stroke-miterlimit:10;}.cls-2{stroke-linecap:round;stroke-linejoin:round;}</style></defs><title>Asset 8</title><g id="Layer_2" data-name="Layer 2"><g id="Layer_1-2" data-name="Layer 1"><line class="cls-1" x1="4.07" y1="4.84" x2="11.4" y2="4.84"/><line class="cls-1" x1="4.07" y1="8.1" x2="14.7" y2="8.1"/><line class="cls-1" x1="4.07" y1="11.35" x2="16.07" y2="11.35"/><line class="cls-1" x1="4.07" y1="14.6" x2="12.23" y2="14.6"/><line class="cls-1" x1="4.07" y1="17.85" x2="8.93" y2="17.85"/><line class="cls-1" x1="24.32" y1="15.5" x2="24.32" y2="5.53"/><polyline class="cls-1" points="18.26 0.55 0.5 0.55 0.5 29.72 10.71 29.72"/><polyline class="cls-1" points="24.32 6.14 17.6 6.14 17.6 4.39 17.61 0.55"/><line class="cls-1" x1="17.67" y1="0.38" x2="24.59" y2="6.12"/><line class="cls-2" x1="27.58" y1="32.28" x2="34.5" y2="39.19"/><circle class="cls-1" cx="22.22" cy="27.08" r="7.28" transform="translate(-7.76 8.96) rotate(-19.49)"/><line class="cls-1" x1="25.04" y1="30.14" x2="25.04" y2="23.66"/><line class="cls-1" x1="22.04" y1="30.14" x2="22.04" y2="25.71"/><line class="cls-1" x1="19.1" y1="30.14" x2="19.1" y2="27.05"/></g></g></svg>