<svg xmlns="http://www.w3.org/2000/svg" viewBox="0 0 46.88 43.96"><defs><style>.cls-1,.cls-2,.cls-3{fill:none;stroke:#1d343b;}.cls-1{stroke-miterlimit:10;}.cls-2,.cls-3{stroke-linejoin:round;}.cls-3{stroke-linecap:round;}</style></defs><title>Asset 13</title><g id="Layer_2" data-name="Layer 2"><g id="Layer_1-2" data-name="Layer 1"><path class="cls-1" d="M27.38,9.79c0-5.31-8.78-6.53-8.78-6.53s-.3,4-1,1.93a9.39,9.39,0,0,1,0-4.69,7.35,7.35,0,0,0-5.81,3,6.74,6.74,0,0,0-1.16,4.47L10.13,5.7s-1.52.21-2.85,3a14.35,14.35,0,0,0-.92,5.27c0,3.91,0,11.58,0,11.58.43,4.81,5,8.59,10.48,8.59S27,30.26,27.36,25.4C27.36,25.4,27.38,10.44,27.38,9.79Z"/><path class="cls-1" d="M28.28,17.06c1.19,0,2.17,1.39,2.17,3.11s-1,3.12-2.17,3.12h-.05"/><path class="cls-1" d="M5.5,17.06c-1.2,0-2.17,1.39-2.17,3.11s1,3.12,2.17,3.12h0"/><path class="cls-1" d="M6.35,16.19s3-4.36,5.93-4.67"/><path class="cls-1" d="M11,10a3.86,3.86,0,0,0,2.76,2.45,24.74,24.74,0,0,0,8.67,0c1.94-.41,4.27-.71,4.94-1.63"/><path class="cls-2" d="M20,28.67a4.26,4.26,0,0,1-2.89.9,4.17,4.17,0,0,1-3-1"/><line class="cls-3" x1="11.91" y1="19.32" x2="13.3" y2="19.32"/><line class="cls-3" x1="21.29" y1="19.32" x2="22.73" y2="19.32"/><path class="cls-1" d="M12.42,33.26C5.52,33.92.5,36,.5,38.36v1.78"/><path class="cls-1" d="M21.49,33.21a51.91,51.91,0,0,1,6.41,1.21h.23"/><line class="cls-3" x1="16.57" y1="24.21" x2="17.59" y2="24.21"/><rect class="cls-3" x="32.76" y="32.49" width="13.63" height="10.97"/><path class="cls-3" d="M34.93,31.73c0-2.78.66-5.6,4.64-5.6s4.64,2.82,4.64,5.6"/></g></g></svg>