<svg xmlns="http://www.w3.org/2000/svg" viewBox="0 0 36.41 42.51"><defs><style>.cls-1{fill:none;stroke:#1d343b;stroke-linecap:round;stroke-linejoin:round;}</style></defs><title>Asset 7</title><g id="Layer_2" data-name="Layer 2"><g id="Layer_1-2" data-name="Layer 1"><path class="cls-1" d="M27.26,18.09V5.4A28,28,0,0,1,14.3.5C8.58,4.82.5,5.4.5,5.4v16A6.22,6.22,0,0,0,2.76,26.2L14.3,35.7l3.6-3.16"/><path class="cls-1" d="M22.87,18V9.47a18.88,18.88,0,0,1-8.71-3.29c-3.84,2.9-9.27,3.29-9.27,3.29V20.23a4.2,4.2,0,0,0,1.52,3.22l7.75,6.38,2.42-2.12"/><line class="cls-1" x1="14.56" y1="13.41" x2="14.56" y2="18.88"/><line class="cls-1" x1="14.56" y1="22.26" x2="14.56" y2="22.26"/><polygon class="cls-1" points="23.4 22.22 23.4 40.11 28.45 35.06 35.91 35.06 23.4 22.22"/><line class="cls-1" x1="28.53" y1="35.28" x2="31.62" y2="42.01"/></g></g></svg>