<svg width="40px" height="40px" viewBox="0 0 40 40" version="1.1" xmlns="http://www.w3.org/2000/svg" xmlns:xlink="http://www.w3.org/1999/xlink">
    <defs>
        <path d="M33.983,-2.22044499e-16 L6.017,-2.22044499e-16 C2.69891337,0.0120658891 0.0120658891,2.69891337 0,6.017 L0,33.983 C0.0120658891,37.3010866 2.69891337,39.9879341 6.017,40 L33.983,40 C37.3010866,39.9879341 39.9879341,37.3010866 40,33.983 L40,6.017 C40.0005308,4.42102973 39.3667691,2.89027384 38.2382476,1.76175238 C37.1097262,0.633230916 35.5789703,-0.000530751713 33.983,-2.22044499e-16 Z M38.737,33.983 C38.7320474,36.6065075 36.6065075,38.7320474 33.983,38.737 L6.017,38.737 C3.39349248,38.7320474 1.26795262,36.6065075 1.263,33.983 L1.263,6.017 C1.26795262,3.39349248 3.39349248,1.26795262 6.017,1.263 L33.983,1.263 C36.6065075,1.26795262 38.7320474,3.39349248 38.737,6.017 L38.737,33.983 Z M5.571,5.46 L5.571,11.588 L6.685,11.588 L6.685,8.58 L6.722,8.58 L9.396,11.588 L10.916,11.588 L7.871,8.283 L10.696,5.46 L9.248,5.46 L6.722,8.06 L6.685,8.06 L6.685,5.46 L5.571,5.46 Z M14.485,6.796 L15.268,5.979 C14.7869311,5.55500188 14.1630018,5.32915807 13.522,5.347 C12.37,5.347 11.256,5.941 11.256,7.204 C11.256,9.395 14.156,8.615 14.156,9.952 C14.156,10.509 13.562,10.769 13.079,10.769 C12.6005867,10.7780072 12.1514116,10.5394301 11.891,10.138 L11.074,10.918 C11.5906744,11.4710784 12.3239293,11.7697171 13.08,11.735 C13.6383964,11.8068597 14.2009311,11.6371152 14.6263787,11.2683813 C15.0518263,10.8996473 15.2997834,10.3669412 15.308,9.804 C15.308,7.613 12.408,8.319 12.408,7.093 C12.408,6.536 12.925,6.313 13.408,6.313 C13.8253571,6.28277729 14.2299813,6.46423829 14.485,6.796 Z M22.99,11.588 L22.916,11.589 L22.916,10.66 L21.17,10.66 C22.0005213,10.2149157 22.5049733,9.33561703 22.47,8.394 C22.4471306,7.12122049 21.6578356,5.98827873 20.471817,5.52583912 C19.2857983,5.06339951 17.9379262,5.36304014 17.0595375,6.2844108 C16.1811487,7.20578146 15.9461928,8.56642077 16.464722,9.72901192 C16.9832512,10.8916031 18.1525798,11.6259152 19.425,11.588 L22.99,11.588 Z M17.233,8.431 C17.2165394,7.68367326 17.6058193,6.98596156 18.2504191,6.60746553 C18.895019,6.22896949 19.693981,6.22896949 20.3385809,6.60746553 C20.9831807,6.98596156 21.3724606,7.68367326 21.356,8.431 C21.3786719,8.99606428 21.1692834,9.54582233 20.7764501,9.95263144 C20.3836168,10.3594405 19.8415114,10.5879122 19.276,10.585 C18.712327,10.5923617 18.1711955,10.363964 17.7832624,9.95495374 C17.3953293,9.54594351 17.195854,8.9934959 17.233,8.431 Z M23.77,5.46 L23.77,11.585 L27.447,11.585 L27.447,10.585 L24.847,10.585 L24.847,5.46 L23.77,5.46 Z M4.865,14.076 L7.279,20.204 L8.208,20.204 L10.696,14.076 L9.508,14.076 L7.799,18.681 L6.128,14.076 L4.865,14.076 Z M12.851,14.076 L10.214,20.167 L11.44,20.167 L11.997,18.756 L14.634,18.756 L15.191,20.167 L16.414,20.167 L13.78,14.076 L12.851,14.076 Z M14.225,17.864 L12.331,17.864 L13.297,15.376 L14.225,17.864 Z M17.53,15.076 L17.53,20.201 L18.607,20.201 L18.607,15.076 L20.501,15.076 L20.501,14.076 L15.673,14.076 L15.673,15.076 L17.53,15.076 Z" id="path-1"></path>
    </defs>
    <g id="Moja-Currenda" stroke="none" stroke-width="1" fill="none" fill-rule="evenodd">
        <g id="#Main-App" transform="translate(-16.000000, -153.000000)">
            <g id="atoms/product-icons/ksqlvat" transform="translate(16.000000, 153.000000)">
                <g id="atoms/colors/primary">
                    <mask id="mask-2" fill="white">
                        <use xlink:href="#path-1"></use>
                    </mask>
                    <g id="Mask" fill-rule="nonzero"></g>
                    <g id="colors/primary" mask="url(#mask-2)" fill="#EF4F10">
                        <rect id="Rectangle" x="0" y="0" width="40" height="40"></rect>
                    </g>
                </g>
            </g>
        </g>
    </g>
</svg>