<svg xmlns="http://www.w3.org/2000/svg" viewBox="0 0 32.31 36.42"><defs><style>.cls-1{fill:none;stroke:#1d343b;stroke-miterlimit:10;stroke-width:0.86px;}</style></defs><title>Asset 16</title><g id="Layer_2" data-name="Layer 2"><g id="Layer_1-2" data-name="Layer 1"><polyline class="cls-1" points="2.7 10.23 16.23 0.53 29.73 10.16"/><rect class="cls-1" x="0.43" y="10.09" width="31.44" height="3.49"/><rect class="cls-1" x="0.43" y="32.5" width="31.44" height="3.49"/><line class="cls-1" x1="29.58" y1="13.58" x2="29.58" y2="32.5"/><line class="cls-1" x1="2.89" y1="32.5" x2="2.89" y2="13.58"/><path class="cls-1" d="M10.83,32.67V19.73a2.09,2.09,0,0,0-2-2.14h0a2.09,2.09,0,0,0-2,2.14V32.67"/><path class="cls-1" d="M18.21,32.67V19.73a2.09,2.09,0,0,0-2-2.14h0a2.09,2.09,0,0,0-2,2.14V32.67"/><path class="cls-1" d="M25.6,32.67V19.73a2.09,2.09,0,0,0-2-2.14h0a2.09,2.09,0,0,0-2,2.14V32.67"/></g></g></svg>