<svg xmlns="http://www.w3.org/2000/svg" viewBox="0 0 36.51 42.68"><defs><style>.cls-1,.cls-2{fill:none;stroke:#1d343b;}.cls-1{stroke-linecap:round;stroke-linejoin:round;}.cls-2{stroke-miterlimit:10;}</style></defs><title>Asset 12</title><g id="Layer_2" data-name="Layer 2"><g id="Layer_1-2" data-name="Layer 1"><circle class="cls-1" cx="11.26" cy="11.26" r="10.76"/><path class="cls-1" d="M6.07,12.72a.14.14,0,0,1-.14.14.15.15,0,0,1-.15-.14.15.15,0,0,1,.15-.15A.15.15,0,0,1,6.07,12.72Zm10.8,0a.15.15,0,0,1-.15.14.14.14,0,0,1-.14-.14.15.15,0,0,1,.14-.15A.15.15,0,0,1,16.87,12.72Z"/><line class="cls-1" x1="1.27" y1="28.4" x2="1.27" y2="15.39"/><path class="cls-2" d="M10.33,32.88a11.91,11.91,0,0,1-2.4.24H1.27V28.27A8.18,8.18,0,0,0,8.81,21.9"/><path class="cls-2" d="M21.17,15.39l.07,3.17a15.83,15.83,0,0,1-1,5.46v.46"/><polygon class="cls-2" points="11.18 16.72 11.31 16.72 11.24 16.84 11.18 16.72"/><path class="cls-2" d="M24.65,26.33l-9.72,3.92a.46.46,0,0,0,0,.74l9.72,4.17a.19.19,0,0,0,.18,0L34.56,31a.46.46,0,0,0,0-.74l-9.72-3.92A.23.23,0,0,0,24.65,26.33Z"/><line class="cls-2" x1="34.72" y1="30.51" x2="34.72" y2="37.99"/><path class="cls-2" d="M33.52,38.79s-.09-.88,1.2-.88,1.29.88,1.29.88v3.39H33.52Z"/><path class="cls-2" d="M19.34,33.28l-1.55,3.1a.42.42,0,0,0,.13.5l6.5,3.38a.15.15,0,0,0,.16,0L31.27,37a.41.41,0,0,0,.12-.52l-1.74-3"/><path class="cls-1" d="M21.83,9.66C21.18,7.59,20.15,6.18,17,6.18c-3.52,0-5.09,4.55-5.11,4.59l-.56,1.68-.61-1.66S9,6.18,5.58,6.18A4.59,4.59,0,0,0,.62,10"/></g></g></svg>