<svg xmlns="http://www.w3.org/2000/svg" viewBox="0 0 35.06 34.63"><defs><style>.cls-1{fill:none;stroke:#1d343b;stroke-miterlimit:10;}</style></defs><title>Asset 11</title><g id="Layer_2" data-name="Layer 2"><g id="Layer_13" data-name="Layer 13"><polyline class="cls-1" points="29.28 12.14 29.28 0.5 6.7 0.5 6.7 16.63 19.3 16.63"/><polyline class="cls-1" points="6.86 6.5 0.5 6.5 0.5 12.19 0.5 21.99 4.33 21.99 7.16 21.99 12.43 27.39 12.43 21.99 15.45 21.99"/><line class="cls-1" x1="10.44" y1="5.58" x2="21.82" y2="5.58"/><line class="cls-1" x1="10.44" y1="8.67" x2="18.18" y2="8.67"/><line class="cls-1" x1="10.44" y1="11.75" x2="15.05" y2="11.75"/><circle class="cls-1" cx="27.43" cy="21.59" r="4.77"/><path class="cls-1" d="M19.61,34.63V33.18a3.64,3.64,0,0,1,3.64-3.64h7.67a3.64,3.64,0,0,1,3.64,3.64v1.45"/></g></g></svg>