<svg xmlns="http://www.w3.org/2000/svg" viewBox="0 0 29.86 43.2"><defs><style>.cls-1{fill:none;stroke:#1d343b;stroke-miterlimit:10;}</style></defs><title>Asset 15</title><g id="Layer_2" data-name="Layer 2"><g id="Layer_1-2" data-name="Layer 1"><polyline class="cls-1" points="25.06 19.65 25.06 5.1 19.02 5.1"/><polyline class="cls-1" points="7.78 5.1 0.5 5.1 0.5 33.48 9.75 33.48"/><path class="cls-1" d="M22.44,24.05l-7.37,2.31V36.47l7.37,6.07,6.92-6.07V26.36Z"/><polyline class="cls-1" points="18.99 32.67 21.52 35.2 26.59 30.13"/><polyline class="cls-1" points="4.67 23.33 7.77 18.89 12.45 21.74 19.75 12.62"/><polyline class="cls-1" points="14.48 14.09 20 11.82 19.69 18.33"/><path class="cls-1" d="M11.64,3.64H9.2A1.38,1.38,0,0,0,7.82,5v1.6H18.91V5a1.38,1.38,0,0,0-1.38-1.38H15.1"/><path class="cls-1" d="M10.87,3a2.52,2.52,0,1,1,5,0"/></g></g></svg>