<svg xmlns="http://www.w3.org/2000/svg" width="24.8496mm" height="22.2054mm" viewBox="0 0 70.4399 62.9443">
  <g id="0f861464-a324-4e6f-be6c-d52f61da7eee" data-name="Layer 2">
    <g id="152ecc80-f862-4851-858a-369a617baa2f" data-name="Warstwa 1">
      <g>
        <path d="M57.8672,56.9507H12.5728a7.23,7.23,0,0,1-7.2222-7.2222V10.48a6.2093,6.2093,0,0,0-1.9063,4.4761v38.312A6.2387,6.2387,0,0,0,9.6763,59.5H60.7637a6.2387,6.2387,0,0,0,6.2319-6.2319V14.9561A6.2092,6.2092,0,0,0,65.0894,10.48V49.7285A7.23,7.23,0,0,1,57.8672,56.9507Z" style="fill: none"></path>
        <path d="M65.0207,6.28A7.2277,7.2277,0,0,0,57.8672,0H12.5728A7.2276,7.2276,0,0,0,5.4193,6.28,9.6781,9.6781,0,0,0,0,14.9561v38.312a9.6873,9.6873,0,0,0,9.6763,9.6762H60.7637A9.6873,9.6873,0,0,0,70.44,53.2681V14.9561A9.6782,9.6782,0,0,0,65.0207,6.28ZM36.9424,8.7246v-5.28H57.8672A3.82,3.82,0,0,1,61.645,7.2222V49.7285a3.7822,3.7822,0,0,1-3.7778,3.7778H36.9424Zm-24.37-5.28H33.498v50.062H12.5728a3.7822,3.7822,0,0,1-3.7779-3.7778V7.2222a3.82,3.82,0,0,1,3.7779-3.7779ZM66.9956,53.2681A6.2387,6.2387,0,0,1,60.7637,59.5H9.6763a6.2387,6.2387,0,0,1-6.232-6.2319V14.9561A6.2093,6.2093,0,0,1,5.3506,10.48V49.7285a7.23,7.23,0,0,0,7.2222,7.2222H57.8672a7.23,7.23,0,0,0,7.2222-7.2222V10.48a6.2092,6.2092,0,0,1,1.9062,4.4761Z" style="fill:#e9500e"></path>
      </g>
      <path d="M28.4756,20.2085H13.4937a1.7222,1.7222,0,1,1,0-3.4443H28.4756a1.7222,1.7222,0,1,1,0,3.4443Z" style="fill: #e9500e"></path>
      <path d="M28.4756,27.3428H13.4937a1.7222,1.7222,0,0,1,0-3.4444H28.4756a1.7222,1.7222,0,0,1,0,3.4444Z" style="fill: #e9500e"></path>
      <path d="M28.4756,34.4771H13.4937a1.7222,1.7222,0,1,1,0-3.4444H28.4756a1.7222,1.7222,0,0,1,0,3.4444Z" style="fill: #e9500e"></path>
      <path d="M28.4756,41.6113H13.4937a1.7222,1.7222,0,1,1,0-3.4443H28.4756a1.7222,1.7222,0,1,1,0,3.4443Z" style="fill: #e9500e"></path>
      <path d="M56.7847,20.2085H41.8027a1.7222,1.7222,0,0,1,0-3.4443h14.982a1.7222,1.7222,0,0,1,0,3.4443Z" style="fill: #e9500e"></path>
      <path d="M56.7847,27.3428H41.8027a1.7222,1.7222,0,0,1,0-3.4444h14.982a1.7222,1.7222,0,0,1,0,3.4444Z" style="fill: #e9500e"></path>
      <path d="M56.7847,34.4771H41.8027a1.7222,1.7222,0,0,1,0-3.4444h14.982a1.7222,1.7222,0,0,1,0,3.4444Z" style="fill: #e9500e"></path>
      <path d="M56.7847,41.6113H41.8027a1.7222,1.7222,0,0,1,0-3.4443h14.982a1.7222,1.7222,0,0,1,0,3.4443Z" style="fill: #e9500e"></path>
    </g>
  </g>
</svg>