<svg class="activeMenuTopSvg" xmlns="http://www.w3.org/2000/svg" width="23.6346mm" height="22.1269mm" viewBox="0 0 66.9956 62.722">
  <g id="b82a6614-f277-4a35-bd7c-2d2e6755e360" data-name="Layer 2">
    <g id="58eefeb6-fd80-4f40-ae67-f27719844335" data-name="Warstwa 1">
      <path d="M64.8671,11.0533V8.7222A8.732,8.732,0,0,0,56.145,0H10.8505A8.732,8.732,0,0,0,2.1284,8.7222v2.3312A7.9164,7.9164,0,0,0,0,16.4562V54.768a7.954,7.954,0,0,0,7.954,7.954H59.0416a7.954,7.954,0,0,0,7.954-7.954V16.4562A7.9161,7.9161,0,0,0,64.8671,11.0533Zm-.75,40.1752a7.981,7.981,0,0,1-7.9721,7.9722H10.8505a7.981,7.981,0,0,1-7.9721-7.9722V8.7222A7.981,7.981,0,0,1,10.8505.75H56.145a7.981,7.981,0,0,1,7.9721,7.9722Z" style="fill: #e9500e"/>
      <path d="M10.8505,5.6943A3.0314,3.0314,0,0,0,7.8227,8.7222V51.2285a3.0314,3.0314,0,0,0,3.0278,3.0278H31.0258V5.6943Zm15.9029,37.417H11.7714a1.7222,1.7222,0,0,1,0-3.4443h14.982a1.7222,1.7222,0,0,1,0,3.4443Zm0-7.1342H11.7714a1.7222,1.7222,0,0,1,0-3.4444h14.982a1.7222,1.7222,0,0,1,0,3.4444Zm0-7.1343H11.7714a1.7222,1.7222,0,0,1,0-3.4444h14.982a1.7222,1.7222,0,0,1,0,3.4444Zm0-7.1343H11.7714a1.7222,1.7222,0,0,1,0-3.4443h14.982a1.7222,1.7222,0,0,1,0,3.4443Z" style="fill: #e9500e"/>
      <path d="M56.145,5.6943H35.97v48.562H56.145a3.0314,3.0314,0,0,0,3.0278-3.0278V8.7222A3.0314,3.0314,0,0,0,56.145,5.6943Zm-1.0826,37.417H40.0805a1.7222,1.7222,0,1,1,0-3.4443H55.0624a1.7222,1.7222,0,1,1,0,3.4443Zm0-7.1342H40.0805a1.7222,1.7222,0,0,1,0-3.4444H55.0624a1.7222,1.7222,0,0,1,0,3.4444Zm0-7.1343H40.0805a1.7222,1.7222,0,0,1,0-3.4444H55.0624a1.7222,1.7222,0,0,1,0,3.4444Zm0-7.1343H40.0805a1.7222,1.7222,0,1,1,0-3.4443H55.0624a1.7222,1.7222,0,1,1,0,3.4443Z" style="fill: #e9500e"/>
    </g>
  </g>
</svg>
