<?xml version="1.0" encoding="utf-8"?>
<!-- Generator: Adobe Illustrator 22.1.0, SVG Export Plug-In . SVG Version: 6.00 Build 0)  -->
<svg version="1.1" id="Layer_1" xmlns="http://www.w3.org/2000/svg" xmlns:xlink="http://www.w3.org/1999/xlink" x="0px" y="0px"
	 viewBox="0 0 39.3 39.3" style="enable-background:new 0 0 39.3 39.3;" xml:space="preserve">
<style type="text/css">
	.st0{fill:#e9500e;}
</style>
<g>
	<path class="st0" d="M25.8,4.3h-0.9c0,0-5.3,5.7-13.6,5.7v2.3h14.5V4.3z"/>
	<polygon class="st0" points="26.1,20.8 26.9,18.7 25.9,13.6 20.7,13.6 20.7,19 25.7,18.7 24.6,20.1 22.1,19.8 25.7,23.4 20.7,22.6 
		20.7,26.9 19.8,27.8 19.8,13.6 18.9,13.6 18.9,13.6 18.9,28.8 17.9,29.7 17.9,13.6 17,13.6 17,13.6 17,35.1 17,35.1 19.9,35.1 
		20.9,30.5 25.1,30.9 26.1,28.6 26.6,25.6 28,25.1 	"/>
	<rect x="11.4" y="13.6" class="st0" width="0.9" height="21.4"/>
	<rect x="13.2" y="13.6" class="st0" width="0.9" height="21.4"/>
	<polygon class="st0" points="15.1,13.6 15.1,35.1 15.1,35.1 16,35.1 16,13.6 15.1,13.6 	"/>
</g>
</svg>
