<svg class="logoCurrenda" xmlns="http://www.w3.org/2000/svg" viewBox="0 0 110 31.92" style="fill:rgb(212, 212, 212);"><path d="M313.92,54.88H313a20.65,20.65,0,0,1-14.07,6v2.33h15V54.88Z" transform="translate(-298.93 -54.88)"/><polygon points="16.11 14.94 15.08 9.72 9.72 9.72 9.72 15.27 14.84 15.01 13.76 16.41 11.1 16.14 14.85 19.87 9.72 19.02 9.72 23.46 8.74 24.44 8.74 9.72 7.78 9.72 7.78 9.72 7.78 25.41 6.79 26.39 6.79 9.72 5.83 9.72 5.83 9.72 5.83 31.92 5.83 31.92 8.88 31.92 9.89 27.21 14.2 27.65 15.27 25.18 15.83 22.13 17.21 21.57 15.32 17.17 16.11 14.94"/><rect y="9.72" width="0.98" height="22.21"/><rect x="1.94" y="9.72" width="0.96" height="22.21"/><polygon points="3.89 9.72 3.89 31.92 3.89 31.92 4.85 31.92 4.85 9.72 3.89 9.72"/><path d="M329,70.47a3.35,3.35,0,0,1,2.38,1l1.37-1.37a5.3,5.3,0,1,0,0,7.5h0l-1.37-1.37A3.36,3.36,0,1,1,329,70.47" transform="translate(-298.93 -54.88)"/><path d="M351.46,72.21h-2.92V70.72h2.92a0.75,0.75,0,0,1,.75.75,0.76,0.76,0,0,1-.75.75m0-3.45h-5.61L346.59,70v9h1.94V74.16h1.1l1.71,4.77h2.07l-1.73-4.79a2.69,2.69,0,0,0-.23-5.38" transform="translate(-298.93 -54.88)"/><path d="M361.83,72.21h-2.92V70.72h2.92a0.75,0.75,0,0,1,.75.75,0.76,0.76,0,0,1-.75.75m0-3.45h-5.61L357,70v9h1.94V74.16H360l1.71,4.77h2.07l-1.73-4.79a2.69,2.69,0,0,0-.23-5.38" transform="translate(-298.93 -54.88)"/><polygon points="68.54 15.1 68.54 24.06 74.83 24.06 74.83 22.11 70.49 22.11 70.49 19.28 74.83 19.28 74.83 17.34 70.49 17.34 70.49 15.85 74.83 15.85 74.83 13.89 67.78 13.89 68.54 15.1"/><polygon points="84.72 20.56 79.85 13.89 77.16 13.89 77.91 15.1 77.91 24.06 79.85 24.06 79.85 17.4 84.72 24.06 86.66 24.06 86.66 13.89 84.72 13.89 84.72 20.56"/><path d="M402.34,74.84l1.18-2.36,1.18,2.36h-2.36Zm1.49-6.08h-2.18l0.78,1.54-4.31,8.61h2.18l1.07-2.15h4.31l1.07,2.15h2.18Z" transform="translate(-298.93 -54.88)"/><path d="M392.48,77h-1.87V70.71h1.87a3.14,3.14,0,1,1,0,6.28h0m0-8.23h-4.57L388.65,70v9h3.81a5.08,5.08,0,1,0,0-10.17" transform="translate(-298.93 -54.88)"/><path d="M341.83,74.76h0a2.43,2.43,0,0,1-4.85,0h0v-6h-2.69L335,70v4.77a4.37,4.37,0,1,0,8.74,0h0v-6h-1.94v6Z" transform="translate(-298.93 -54.88)"/></svg>