<svg width="17px" height="17px" viewBox="0 0 17 17" version="1.1" xmlns="http://www.w3.org/2000/svg" xmlns:xlink="http://www.w3.org/1999/xlink"><defs><path d="M16,9 L16,6 L14.7333333,6 L14.7333333,5 L16,5 L16,0 L0,0 L0,5 L1,5 L1,6 L0,6 L0,10 L1,10 L1,11 L0,11 L0,16 L9,16 C9.8755,16.7072 10.7873333,16.9994333 12,17 C14.8169,16.9988667 16.9988667,14.8169 17,12 C16.9994333,10.7856333 16.7072,9.8755 16,9 Z M1,3 L4,3 L4,4 L1,4 L1,3 Z M13.4142136,9.17157288 L14.8284271,10.5857864 L13.4142136,12 L14.8284271,13.4142136 L13.4142136,14.8284271 L12,13.4142136 L10.5857864,14.8284271 L9.17157288,13.4142136 L10.5857864,12 L9.17157288,10.5857864 L10.5857864,9.17157288 L12,10.5857864 L13.4142136,9.17157288 Z M13.6,5 L13.6,6 L2.26666667,6 L2.26666667,5 L13.6,5 Z M1,8 L4,8 L4,9.06666667 L1,9.06666667 L1,8 Z M4,15 L1,15 L1,14 L4,14 L4,15 Z M6.83343333,11 L2.26666667,11 L2.26666667,10 L7.0958,10 C6.9683,10.3621 6.8765,10.6073 6.83343333,11 Z M11.9990811,15.9985 C9.79048141,15.9932705 8.00372952,14.2065186 7.9985,11.9990811 C8.00372952,9.79048141 9.79048141,8.00372952 11.9990811,7.9985 C14.2065186,8.00372952 15.9932705,9.79048141 15.9985,11.9990811 C15.9932705,14.2065186 14.2065186,15.9932705 11.9990811,15.9985 Z" id="path-1"></path></defs><g id="Moja-Currenda" stroke="none" stroke-width="1" fill="none" fill-rule="evenodd"><mask id="mask-2" fill="white"><use xlink:href="#path-1"></use></mask><use id="path-1" fill="#fff" xlink:href="#path-1"></use></g></svg>